<?xml version="1.0" encoding="utf-8"?>
<!-- Generator: Adobe Illustrator 16.0.0, SVG Export Plug-In . SVG Version: 6.00 Build 0)  -->
<!DOCTYPE svg PUBLIC "-//W3C//DTD SVG 1.1//EN" "http://www.w3.org/Graphics/SVG/1.1/DTD/svg11.dtd">
<svg version="1.1" id="Layer_1" xmlns="http://www.w3.org/2000/svg" xmlns:xlink="http://www.w3.org/1999/xlink" x="0px" y="0px"
	 width="54px" height="57px" viewBox="0 0 54 57" style="enable-background:new 0 0 54 57;" xml:space="preserve" fill="#ffffff">
<g>
	<g>
		<path d="M10,41v2c0,1.7,1.3,3,3,3h28c1.7,0,3-1.3,3-3v-2c0-1.7-1.3-3-3-3H13C11.3,38,10,39.3,10,41z M36,41c0-0.6,0.4-1,1-1h4
			c0.6,0,1,0.4,1,1v2c0,0.6-0.4,1-1,1h-4c-0.6,0-1-0.4-1-1V41z M19.8,40h14.4c-0.1,0.3-0.2,0.6-0.2,1v2c0,0.4,0.1,0.7,0.2,1H19.8
			c0.1-0.3,0.2-0.6,0.2-1v-2C20,40.6,19.9,40.3,19.8,40z M18,41v2c0,0.6-0.4,1-1,1h-4c-0.6,0-1-0.4-1-1v-2c0-0.6,0.4-1,1-1h4
			C17.6,40,18,40.4,18,41z M51,10h-1c-0.4,0-0.7,0.1-1,0.2V5c0-1.6-1.3-2.9-2.9-3c-1-0.3-7.9-2-19.1-2S8.9,1.7,7.9,2
			C6.3,2.1,5,3.4,5,5v5.2C4.7,10.1,4.4,10,4,10H3c-1.7,0-3,1.3-3,3v8c0,1.7,1.3,3,3,3h1c0.4,0,0.7-0.1,1-0.2V50c0,1.7,1.3,3,3,3h1.1
			C9,53.2,9,53.4,9,53.6v0.8c0,1.4,1.2,2.6,2.6,2.6h2.8c1.4,0,2.6-1.2,2.6-2.6v-0.8c0-0.2,0-0.4-0.1-0.6h20.2c0,0.2-0.1,0.4-0.1,0.6
			v0.8c0,1.4,1.2,2.6,2.6,2.6h2.8c1.4,0,2.6-1.2,2.6-2.6v-0.8c0-0.2,0-0.4-0.1-0.6H46c1.7,0,3-1.3,3-3V23.8c0.3,0.1,0.6,0.2,1,0.2h1
			c1.7,0,3-1.3,3-3v-8C54,11.3,52.7,10,51,10z M5,21c0,0.6-0.4,1-1,1H3c-0.6,0-1-0.4-1-1v-8c0-0.6,0.4-1,1-1h1c0.6,0,1,0.4,1,1V21z
			 M21,2.2C22.8,2.1,24.8,2,27,2c2.2,0,4.2,0.1,6,0.2V6c0,0.6-0.4,1-1,1H22c-0.6,0-1-0.4-1-1V2.2z M15,54.4c0,0.3-0.3,0.6-0.6,0.6
			h-2.8c-0.3,0-0.6-0.3-0.6-0.6v-0.8c0-0.3,0.3-0.6,0.6-0.6h2.8c0.3,0,0.6,0.3,0.6,0.6V54.4z M43,54.4c0,0.3-0.3,0.6-0.6,0.6h-2.8
			c-0.3,0-0.6-0.3-0.6-0.6v-0.8c0-0.3,0.3-0.6,0.6-0.6h2.8c0.3,0,0.6,0.3,0.6,0.6V54.4z M47,50c0,0.6-0.4,1-1,1H8c-0.6,0-1-0.4-1-1
			V28.4c2.9,1.2,9.8,3.6,20,3.6c10.2,0,17.1-2.4,20-3.6V50z M47,26.3c-1.6,0.7-7,2.9-15.4,3.6c0.7-0.8,1.1-1.8,1.3-2.8H41
			c0.6,0,1-0.4,1-1c0-0.6-0.4-1-1-1H29c-0.6,0-1,0.4-1,1c0,0.6,0.4,1,1,1h1.9c-0.4,1.7-2,3-3.9,3c-10.9,0-18.1-2.9-20-3.7V5
			c0-0.6,0.4-1,1-1l0.3,0c0.1,0,3.9-1.1,10.7-1.6V6c0,1.7,1.3,3,3,3h10c1.7,0,3-1.3,3-3V2.3C41.8,2.9,45.7,3.9,45.7,4L46,4
			c0.6,0,1,0.4,1,1V26.3z M52,21c0,0.6-0.4,1-1,1h-1c-0.6,0-1-0.4-1-1v-8c0-0.6,0.4-1,1-1h1c0.6,0,1,0.4,1,1V21z M13.7,18.7l5-5
			c0.4-0.4,0.4-1,0-1.4s-1-0.4-1.4,0l-5,5c-0.4,0.4-0.4,1,0,1.4c0.2,0.2,0.5,0.3,0.7,0.3S13.5,18.9,13.7,18.7z M22.3,13.3l-9,9
			c-0.4,0.4-0.4,1,0,1.4c0.2,0.2,0.5,0.3,0.7,0.3s0.5-0.1,0.7-0.3l9-9c0.4-0.4,0.4-1,0-1.4C23.3,12.9,22.7,12.9,22.3,13.3z"/>
	</g>
</g>
</svg>
