<?xml version="1.0" encoding="utf-8"?>
<!-- Generator: Adobe Illustrator 16.0.0, SVG Export Plug-In . SVG Version: 6.00 Build 0)  -->
<!DOCTYPE svg PUBLIC "-//W3C//DTD SVG 1.1//EN" "http://www.w3.org/Graphics/SVG/1.1/DTD/svg11.dtd">
<svg version="1.1" id="Layer_1" xmlns="http://www.w3.org/2000/svg" xmlns:xlink="http://www.w3.org/1999/xlink" x="0px" y="0px"
	 width="34px" height="50px" viewBox="0 0 34 50" style="enable-background:new 0 0 34 50;" xml:space="preserve" fill="#ffffff">
<style type="text/css">
<![CDATA[
	.st0{fill-rule:evenodd;clip-rule:evenodd;}
]]>
</style>
<g>
	<g>
		<path d="M17,9.8c-4,0-7.3,3.3-7.3,7.3c0,4,3.3,7.3,7.3,7.3s7.3-3.3,7.3-7.3C24.2,13,21,9.8,17,9.8z M17,22.4
			c-2.9,0-5.3-2.4-5.3-5.3c0-2.9,2.4-5.3,5.3-5.3s5.3,2.4,5.3,5.3C22.3,20,19.9,22.4,17,22.4z M17,0C7.6,0,0,7.9,0,17.6
			c0,12.1,15.5,30.7,16.2,31.5l0.8,0.9l0.8-0.9C18.4,48.3,34,29.8,34,17.6C33.9,7.9,26.3,0,17,0z M17,46.9C13.8,42.9,2,27.5,2,17.6
			C2,9,8.7,2,17,2c8.2,0,14.9,7,15,15.6C32,27.6,20.1,42.9,17,46.9z"/>
	</g>
</g>
</svg>
