<?xml version="1.0" encoding="utf-8"?>
<!-- Generator: Adobe Illustrator 16.0.0, SVG Export Plug-In . SVG Version: 6.00 Build 0)  -->
<!DOCTYPE svg PUBLIC "-//W3C//DTD SVG 1.1//EN" "http://www.w3.org/Graphics/SVG/1.1/DTD/svg11.dtd">
<svg version="1.1" id="Layer_1" xmlns="http://www.w3.org/2000/svg" xmlns:xlink="http://www.w3.org/1999/xlink" x="0px" y="0px"
	 width="46px" height="56px" viewBox="0 0 46 56" style="enable-background:new 0 0 46 56;" xml:space="preserve" fill="#ffffff">
<style type="text/css">
<![CDATA[
	.st0{fill-rule:evenodd;clip-rule:evenodd;}
]]>
</style>
<g>
	<g >
		<path d="M30.1,17.2c0-4.1-3.3-7.4-7.3-7.4c-4,0-7.3,3.3-7.3,7.4c0,4.1,3.3,7.4,7.3,7.4C26.9,24.5,30.1,21.2,30.1,17.2z M17.6,17.2
			c0-2.9,2.4-5.3,5.3-5.3c2.9,0,5.3,2.4,5.3,5.3c0,2.9-2.4,5.3-5.3,5.3C20,22.5,17.6,20.1,17.6,17.2z M22.8,50.3l0.8-0.9
			c0.7-0.8,16.3-19.5,16.2-31.7C39.8,8,32.2,0,22.9,0c-9.4,0-17,8-17,17.8c0,12.2,15.5,30.9,16.2,31.7L22.8,50.3z M22.9,2
			c8.2,0,14.9,7.1,15,15.7c0,10-11.8,25.5-15,29.4c-3.1-3.9-15-19.4-15-29.4C7.9,9.1,14.6,2,22.9,2z M41,37h-6v2h4l4,15H3l4-15h3v-2
			H5L0,56h46L41,37z"/>
	</g>
</g>
</svg>
