<?xml version="1.0" encoding="UTF-8" standalone="no"?>
<svg width="44px" height="55px" viewBox="0 0 44 55" version="1.1" xmlns="http://www.w3.org/2000/svg" xmlns:xlink="http://www.w3.org/1999/xlink" xmlns:sketch="http://www.bohemiancoding.com/sketch/ns">
    <!-- Generator: Sketch 3.3.2 (12043) - http://www.bohemiancoding.com/sketch -->
    <title>furniture-new-19</title>
    <desc>Created with Sketch.</desc>
    <defs></defs>
    <g id="Page-1" stroke="none" stroke-width="1" fill="none" fill-rule="evenodd" sketch:type="MSPage">
        <g id="furniture-new-19" sketch:type="MSLayerGroup" fill="#ffffff">
            <path d="M13,30 L10,30 C9.447,30 9,29.552 9,29 C9,28.448 9.447,28 10,28 L13,28 C13.553,28 14,28.448 14,29 C14,29.552 13.553,30 13,30" id="Fill-194" sketch:type="MSShapeGroup"></path>
            <path d="M13,33 C12.447,33 12,32.552 12,32 L12,29 C12,28.448 12.447,28 13,28 C13.553,28 14,28.448 14,29 L14,32 C14,32.552 13.553,33 13,33" id="Fill-195" sketch:type="MSShapeGroup"></path>
            <path d="M43,55 L1,55 C0.447,55 0,54.552 0,54 C0,53.448 0.447,53 1,53 L43,53 C43.553,53 44,53.448 44,54 C44,54.552 43.553,55 43,55" id="Fill-196" sketch:type="MSShapeGroup"></path>
            <path d="M35,23 L9,23 C8.447,23 8,22.552 8,22 L8,5 C8,4.448 8.447,4 9,4 L35,4 C35.553,4 36,4.448 36,5 L36,22 C36,22.552 35.553,23 35,23 L35,23 Z M10,21 L34,21 L34,6 L10,6 L10,21 Z" id="Fill-197" sketch:type="MSShapeGroup"></path>
            <path d="M39,55 C38.447,55 38,54.552 38,54 L38,2 L6,2 L6,54 C6,54.552 5.553,55 5,55 C4.447,55 4,54.552 4,54 L4,1 C4,0.448 4.447,0 5,0 L39,0 C39.553,0 40,0.448 40,1 L40,54 C40,54.552 39.553,55 39,55" id="Fill-198" sketch:type="MSShapeGroup"></path>
            <path d="M22,23 C21.447,23 21,22.552 21,22 L21,5 C21,4.448 21.447,4 22,4 C22.553,4 23,4.448 23,5 L23,22 C23,22.552 22.553,23 22,23" id="Fill-199" sketch:type="MSShapeGroup"></path>
        </g>
    </g>
</svg>