<?xml version="1.0" encoding="UTF-8" standalone="no"?>
<svg width="60px" height="60px" viewBox="0 0 60 60" version="1.1" xmlns="http://www.w3.org/2000/svg" xmlns:xlink="http://www.w3.org/1999/xlink" xmlns:sketch="http://www.bohemiancoding.com/sketch/ns">
    <!-- Generator: Sketch 3.3.2 (12043) - http://www.bohemiancoding.com/sketch -->
    <title>essentials-new-25</title>
    <desc>Created with Sketch.</desc>
    <defs></defs>
    <g id="Page-1" stroke="none" stroke-width="1" fill="none" fill-rule="evenodd" sketch:type="MSPage">
        <g id="essentials-new-25" sketch:type="MSLayerGroup" fill="#ffffff">
            <path d="M57,60 L2.999,60 C1.346,60 0,58.654 0,57 L0,14 L60,14 L60,57 C60,58.654 58.654,60 57,60 L57,60 Z M2,16 L2,57 C2,57.552 2.448,58 2.999,58 L57,58 C57.552,58 58,57.552 58,57 L58,16 L2,16 L2,16 Z" id="Fill-365" sketch:type="MSShapeGroup"></path>
            <path d="M60,16 L0,16 L0,3 C0,1.346 1.346,0 2.999,0 L57,0 C58.654,0 60,1.346 60,3 L60,16 L60,16 Z M2,14 L58,14 L58,3 C58,2.449 57.552,2 57,2 L2.999,2 C2.448,2 2,2.449 2,3 L2,14 L2,14 Z" id="Fill-366" sketch:type="MSShapeGroup"></path>
            <path d="M33,27 L44,27 L44,38 L33,38 L33,27 Z M35,36 L42,36 L42,29 L35,29 L35,36 Z" id="Fill-367" sketch:type="MSShapeGroup"></path>
            <path d="M52,29 L7,29 C6.448,29 6,28.552 6,28 C6,27.448 6.448,27 7,27 L52,27 C52.552,27 53,27.448 53,28 C53,28.552 52.552,29 52,29" id="Fill-368" sketch:type="MSShapeGroup"></path>
            <path d="M52,38 L7,38 C6.448,38 6,37.552 6,37 C6,36.448 6.448,36 7,36 L52,36 C52.552,36 53,36.448 53,37 C53,37.552 52.552,38 52,38" id="Fill-369" sketch:type="MSShapeGroup"></path>
            <path d="M52,47 L7,47 C6.448,47 6,46.552 6,46 C6,45.448 6.448,45 7,45 L52,45 C52.552,45 53,45.448 53,46 C53,46.552 52.552,47 52,47" id="Fill-370" sketch:type="MSShapeGroup"></path>
            <path d="M16,56 C15.448,56 15,55.552 15,55 L15,19 C15,18.448 15.448,18 16,18 C16.552,18 17,18.448 17,19 L17,55 C17,55.552 16.552,56 16,56" id="Fill-371" sketch:type="MSShapeGroup"></path>
            <path d="M25,56 C24.448,56 24,55.552 24,55 L24,19 C24,18.448 24.448,18 25,18 C25.552,18 26,18.448 26,19 L26,55 C26,55.552 25.552,56 25,56" id="Fill-372" sketch:type="MSShapeGroup"></path>
            <path d="M34,56 C33.448,56 33,55.552 33,55 L33,19 C33,18.448 33.448,18 34,18 C34.552,18 35,18.448 35,19 L35,55 C35,55.552 34.552,56 34,56" id="Fill-373" sketch:type="MSShapeGroup"></path>
            <path d="M43,56 C42.448,56 42,55.552 42,55 L42,19 C42,18.448 42.448,18 43,18 C43.552,18 44,18.448 44,19 L44,55 C44,55.552 43.552,56 43,56" id="Fill-374" sketch:type="MSShapeGroup"></path>
        </g>
    </g>
</svg>