<?xml version="1.0" encoding="utf-8"?>
<!-- Generator: Adobe Illustrator 16.0.0, SVG Export Plug-In . SVG Version: 6.00 Build 0)  -->
<!DOCTYPE svg PUBLIC "-//W3C//DTD SVG 1.1//EN" "http://www.w3.org/Graphics/SVG/1.1/DTD/svg11.dtd">
<svg version="1.1" id="Layer_1" xmlns="http://www.w3.org/2000/svg" xmlns:xlink="http://www.w3.org/1999/xlink" x="0px" y="0px"
	 width="55.3px" height="38px" viewBox="0 0 55.3 38" style="enable-background:new 0 0 55.3 38;" xml:space="preserve" fill="#ffffff">
<g>
	<g>
		<path d="M55.3,22.3l-0.1-0.2l-6.9-6.7C44.9,7.8,35.2,0.5,34.8,0.2L34.5,0H6.3l1.1,3.4L0,18.2v10l1.9,1l0.5-0.7
			c1.4-2,3.7-2.5,6.1-2.5c4.1,0,6.6,2.6,6.6,6.6c0,0.7-0.1,1.5-0.3,2.2L14.5,36h23.2l-0.4-1.3c-0.2-0.7-0.3-1.4-0.3-2.2
			c0-4,3.4-6.6,7.4-6.6c4,0,7.2,2.6,7.2,6.6c0,0.3,0,0.5,0,0.8L51,35h3l0.3-1.3C55.7,27.7,54.8,22.5,55.3,22.3z M53,29.6
			c-1.2-3.7-4.7-5.6-8.8-5.6c-5.1,0-9.4,3.4-9.4,8.5c0,0.5,0,1,0.1,1.5H17.1c0.1-0.5,0.1-1,0.1-1.5c0-5.1-3.4-8.5-8.6-8.5
			c-2.5,0-4.8,0.2-6.6,1.8v-7.2L9.6,3.6L9,2h24.8c1.6,1.2,9.8,7.9,12.7,14.3L53,23C53.2,23.8,53.2,26.6,53,29.6z M18,5l-4.3,9.5
			L44,17L34,5H18z M16.5,12.7L19,7h14l6.5,7.9L16.5,12.7z M13,5L8,15h2l5-10H13z M44,28c-2.8,0-5,2.2-5,5c0,2.8,2.2,5,5,5
			c2.8,0,5-2.2,5-5C49,30.2,46.8,28,44,28z M44,36.3c-1.8,0-3.3-1.5-3.3-3.3c0-1.8,1.5-3.3,3.3-3.3s3.3,1.5,3.3,3.3
			C47.3,34.8,45.8,36.3,44,36.3z M8,28c-2.8,0-5,2.2-5,5c0,2.8,2.2,5,5,5c2.8,0,5-2.2,5-5C13,30.2,10.8,28,8,28z M8,36.3
			c-1.8,0-3.3-1.5-3.3-3.3c0-1.8,1.5-3.3,3.3-3.3s3.3,1.5,3.3,3.3C11.3,34.8,9.8,36.3,8,36.3z"/>
	</g>
</g>
</svg>
