<?xml version="1.0" encoding="utf-8"?>
<!-- Generator: Adobe Illustrator 16.0.0, SVG Export Plug-In . SVG Version: 6.00 Build 0)  -->
<!DOCTYPE svg PUBLIC "-//W3C//DTD SVG 1.1//EN" "http://www.w3.org/Graphics/SVG/1.1/DTD/svg11.dtd">
<svg version="1.1" id="Layer_1" xmlns="http://www.w3.org/2000/svg" xmlns:xlink="http://www.w3.org/1999/xlink" x="0px" y="0px"
	 width="21.8px" height="44px" viewBox="0 0 21.8 44" style="enable-background:new 0 0 21.8 44;" xml:space="preserve" fill="#ffffff">
<path d="M15,44H4V23l-4,0l0-9h4l0.2-4.2c0-4.7,2.6-9.8,10-9.8l7.6,0v9.2H16c-0.6,0-1,0.1-1,0.8v4h6l0,9l-6,0V44z M6,42h7l0.1-21h6.1
	L19,16h-6l0.1-5.8c0-2.1,1.5-3,2.9-3h3.8V2l-5.6,0C6.8,2,6.3,8,6.3,9.8L6,16H2v5h4V42z"/>
</svg>
