<?xml version="1.0" encoding="utf-8"?>
<!-- Generator: Adobe Illustrator 16.0.0, SVG Export Plug-In . SVG Version: 6.00 Build 0)  -->
<!DOCTYPE svg PUBLIC "-//W3C//DTD SVG 1.1//EN" "http://www.w3.org/Graphics/SVG/1.1/DTD/svg11.dtd">
<svg version="1.1" id="Layer_1" xmlns="http://www.w3.org/2000/svg" xmlns:xlink="http://www.w3.org/1999/xlink" x="0px" y="0px"
	 width="54px" height="31px" viewBox="0 0 54 31" style="enable-background:new 0 0 54 31;" xml:space="preserve" fill="#ffffff">
<g>
	<g>
		<path d="M48.1,8c-0.2-0.2-0.5-0.3-0.8-0.3c-0.3,0-0.6,0.2-0.7,0.5l-0.1,0.1l-17.8,11c0,0-0.1,0-0.1,0.1c-0.2,0.1-0.6,0.4-1,0.8
			c-2.3,2.3-2.3,6,0,8.3c1.1,1.1,2.6,1.7,4.2,1.7c1.6,0,3-0.6,4.1-1.7c0.3-0.3,0.6-0.6,0.7-0.8c0.1-0.1,0.2-0.2,0.2-0.3L47.9,9.8
			L48,9.7c0.3-0.2,0.4-0.4,0.5-0.7c0-0.3-0.1-0.6-0.3-0.8L48.1,8z M35.4,26.1c-0.1,0-0.1,0.1-0.2,0.1c-0.1,0.1-0.2,0.3-0.3,0.4
			c-0.1,0.1-0.3,0.4-0.5,0.6c-0.7,0.7-1.7,1.1-2.7,1.1c-1,0-2-0.4-2.8-1.2c-1.5-1.5-1.5-4,0-5.5c0.2-0.2,0.5-0.4,0.6-0.5
			c0.1,0,0.3-0.1,0.4-0.2L44,12.2L35.4,26.1z M27,2c4.7,0,9.2,1.3,12.9,3.6c0,0,0,0,0,0C40.1,5.8,40.4,6,40.8,6c0.6,0,1-0.5,1-1
			c0-0.3-0.1-0.5-0.3-0.7c0,0,0,0,0,0c-0.1-0.1-0.3-0.2-0.4-0.2c0,0,0,0,0,0C37,1.5,32.2,0,27,0C12.1,0,0,12.1,0,26.9
			c0,1,0.1,2.1,0.2,3.1c0,0,0,0,0,0c0,0.6,0.4,1,1,1c0.5,0,1-0.4,1-1h0C2.1,29,2,28,2,26.9C2,13.2,13.2,2,27,2z M51.2,15
			C51.2,15,51.2,15,51.2,15c-0.2-0.2-0.5-0.4-0.9-0.4c-0.6,0-1.1,0.5-1.1,1.1c0,0.4,0.2,0.7,0.6,0.9c0,0,0,0,0,0
			c1.4,3.1,2.2,6.6,2.2,10.3c0,1.1-0.1,2.1-0.2,3.1h2c0.1-1,0.2-2.1,0.2-3.1C54,22.6,53,18.6,51.2,15z"/>
	</g>
</g>
</svg>
