<?xml version="1.0" encoding="utf-8"?>
<!-- Generator: Adobe Illustrator 16.0.0, SVG Export Plug-In . SVG Version: 6.00 Build 0)  -->
<!DOCTYPE svg PUBLIC "-//W3C//DTD SVG 1.1//EN" "http://www.w3.org/Graphics/SVG/1.1/DTD/svg11.dtd">
<svg version="1.1" id="Layer_1" xmlns="http://www.w3.org/2000/svg" xmlns:xlink="http://www.w3.org/1999/xlink" x="0px" y="0px"
	 width="37px" height="38px" viewBox="0 0 37 38" style="enable-background:new 0 0 37 38;" xml:space="preserve" fill="#ffffff">
<path d="M36,38h-7c-0.6,0-1-0.4-1-1V23.2c0-2.4-1.3-3.8-3.6-3.8c-1.6,0-3,1.1-3.4,2.1c-0.1,0.2,0,0.8,0,1.1c0,0.2,0,0.4,0,0.6V37
	c0,0.5-0.4,1-1,1h-7c-0.3,0-0.5-0.1-0.7-0.3c-0.2-0.2-0.3-0.4-0.3-0.7L12,19.6c0-2.4,0-4.5-0.1-6.3c0-0.3,0.1-0.5,0.3-0.7
	c0.2-0.2,0.5-0.3,0.7-0.3h6c0.6,0,1,0.4,1,1v0.6c1.5-1.3,3.9-2.5,7.1-2.5c6.2,0,10,4,10,10.8V37C37,37.6,36.6,38,36,38z M30,36h5
	V22.2c0-7.7-5-8.8-8-8.8c-3.6,0-6.2,2-7.1,3.4c-0.2,0.3-0.5,0.5-0.9,0.5H19c-0.6,0-1-0.4-1-1v-2h-4c0,1.6,0,3.3,0,5.3l0,1.4L14,36h5
	V23.2c0-0.2,0-0.3,0-0.5c0-0.7,0-1.3,0.2-1.9c0.7-1.7,2.7-3.4,5.3-3.4c3.4,0,5.6,2.3,5.6,5.8V36z M8,38H1c-0.6,0-1-0.4-1-1V12
	c0-0.6,0.4-1,1-1h7c0.6,0,1,0.4,1,1l0,25c0,0.3-0.1,0.5-0.3,0.7C8.5,37.9,8.3,38,8,38z M2,36h5l0-23H2V36z M4.4,9C1.9,9,0,7.1,0,4.5
	C0,1.9,1.9,0,4.5,0C7.1,0,8.9,1.8,9,4.5C9,7.1,7.1,9,4.4,9z M4.5,1.9c-1.6,0-2.7,1-2.7,2.6c0,1.5,1.1,2.6,2.6,2.6
	c1.6,0,2.7-1,2.7-2.6C7.1,2.9,6.1,1.9,4.5,1.9z"/>
</svg>
