<?xml version="1.0" encoding="UTF-8" standalone="no"?>
<svg width="54px" height="54px" viewBox="0 0 54 54" version="1.1" xmlns="http://www.w3.org/2000/svg" xmlns:xlink="http://www.w3.org/1999/xlink" xmlns:sketch="http://www.bohemiancoding.com/sketch/ns">
    <!-- Generator: Sketch 3.3.2 (12043) - http://www.bohemiancoding.com/sketch -->
    <title>essentials-new-1</title>
    <desc>Created with Sketch.</desc>
    <defs></defs>
    <g id="Page-1" stroke="none" stroke-width="1" fill="none" fill-rule="evenodd" sketch:type="MSPage">
        <g id="essentials-new-1" sketch:type="MSLayerGroup" fill="#ffffff">
            <path d="M27,54 C12.112,54 0,41.888 0,27 C0,12.112 12.112,0 27,0 C41.888,0 54,12.112 54,27 C54,41.888 41.888,54 27,54 L27,54 Z M27,2 C13.215,2 2,13.215 2,27 C2,40.785 13.215,52 27,52 C40.785,52 52,40.785 52,27 C52,13.215 40.785,2 27,2 L27,2 Z" id="Fill-1" sketch:type="MSShapeGroup"></path>
            <path d="M27,9 C26.448,9 26,8.552 26,8 L26,1 C26,0.448 26.448,0 27,0 C27.552,0 28,0.448 28,1 L28,8 C28,8.552 27.552,9 27,9" id="Fill-2" sketch:type="MSShapeGroup"></path>
            <path d="M27,54 C26.448,54 26,53.552 26,53 L26,46 C26,45.448 26.448,45 27,45 C27.552,45 28,45.448 28,46 L28,53 C28,53.552 27.552,54 27,54" id="Fill-3" sketch:type="MSShapeGroup"></path>
            <path d="M53,28 L46,28 C45.448,28 45,27.552 45,27 C45,26.448 45.448,26 46,26 L53,26 C53.552,26 54,26.448 54,27 C54,27.552 53.552,28 53,28" id="Fill-4" sketch:type="MSShapeGroup"></path>
            <path d="M8,28 L1,28 C0.448,28 0,27.552 0,27 C0,26.448 0.448,26 1,26 L8,26 C8.552,26 9,26.448 9,27 C9,27.552 8.552,28 8,28" id="Fill-5" sketch:type="MSShapeGroup"></path>
            <path d="M13.565,14.565 C13.309,14.565 13.053,14.467 12.858,14.272 L7.908,9.322 C7.518,8.932 7.518,8.299 7.908,7.908 C8.299,7.518 8.932,7.518 9.322,7.908 L14.272,12.858 C14.663,13.248 14.663,13.882 14.272,14.272 C14.077,14.467 13.821,14.565 13.565,14.565" id="Fill-6" sketch:type="MSShapeGroup"></path>
            <path d="M45.385,46.385 C45.129,46.385 44.873,46.287 44.678,46.092 L39.728,41.142 C39.337,40.752 39.337,40.118 39.728,39.728 C40.119,39.338 40.751,39.338 41.142,39.728 L46.092,44.678 C46.482,45.068 46.482,45.702 46.092,46.092 C45.896,46.287 45.641,46.385 45.385,46.385" id="Fill-7" sketch:type="MSShapeGroup"></path>
            <path d="M40.435,14.565 C40.179,14.565 39.923,14.467 39.728,14.272 C39.337,13.882 39.337,13.248 39.728,12.858 L44.678,7.908 C45.068,7.518 45.701,7.518 46.092,7.908 C46.482,8.299 46.482,8.932 46.092,9.322 L41.142,14.272 C40.947,14.467 40.691,14.565 40.435,14.565" id="Fill-8" sketch:type="MSShapeGroup"></path>
            <path d="M8.615,46.385 C8.359,46.385 8.104,46.287 7.908,46.092 C7.518,45.702 7.518,45.068 7.908,44.678 L12.858,39.728 C13.249,39.338 13.881,39.338 14.272,39.728 C14.663,40.118 14.663,40.752 14.272,41.142 L9.322,46.092 C9.127,46.287 8.871,46.385 8.615,46.385" id="Fill-9" sketch:type="MSShapeGroup"></path>
            <path d="M27,25 C26.448,25 26,24.552 26,24 L26,14 C26,13.448 26.448,13 27,13 C27.552,13 28,13.448 28,14 L28,24 C28,24.552 27.552,25 27,25" id="Fill-10" sketch:type="MSShapeGroup"></path>
            <path d="M24,28 L19,28 C18.448,28 18,27.552 18,27 C18,26.448 18.448,26 19,26 L24,26 C24.552,26 25,26.448 25,27 C25,27.552 24.552,28 24,28" id="Fill-11" sketch:type="MSShapeGroup"></path>
            <path d="M27,31 C24.794,31 23,29.206 23,27 C23,24.795 24.794,23 27,23 C29.206,23 31,24.795 31,27 C31,29.206 29.206,31 27,31 L27,31 Z M27,25 C25.897,25 25,25.897 25,27 C25,28.103 25.897,29 27,29 C28.103,29 29,28.103 29,27 C29,25.897 28.103,25 27,25 L27,25 Z" id="Fill-12" sketch:type="MSShapeGroup"></path>
        </g>
    </g>
</svg>