<?xml version="1.0" encoding="utf-8"?>
<!-- Generator: Adobe Illustrator 16.0.0, SVG Export Plug-In . SVG Version: 6.00 Build 0)  -->
<!DOCTYPE svg PUBLIC "-//W3C//DTD SVG 1.1//EN" "http://www.w3.org/Graphics/SVG/1.1/DTD/svg11.dtd">
<svg version="1.1" id="Layer_1" xmlns="http://www.w3.org/2000/svg" xmlns:xlink="http://www.w3.org/1999/xlink" x="0px" y="0px"
	 width="49.4px" height="40px" viewBox="0 0 49.4 40" style="enable-background:new 0 0 49.4 40;" xml:space="preserve"  fill="#ffffff">
<path  d="M16.5,40C16.5,40,16.5,40,16.5,40c-4.5,0-8.7-1-12-3c-0.4-0.2-5.1-4-4.5-6.3c0.1-0.5,0.6-1.3,2.2-1.3c0.5,0,1.1,0,1.6,0
	c1.8,0,3.5,0,5-0.2c-1.6-1.1-2.8-2.6-3.4-4.2c-0.3-0.6-0.5-1.6-0.5-2.6c-0.6-0.6-1-1.2-1.4-1.9c-1.1-1.9-1.6-4.1-1.5-6.6
	c0-0.8,0.2-1.4,0.6-1.8c-0.1-0.3-0.2-0.6-0.2-0.9C2.1,10.2,2,9.1,2.1,7.7C2.2,5,3.1,2.9,5.1,1c0.3-0.3,0.8-0.5,1.2-0.5
	c1.3,0,2.4,1.3,3.6,3c0.2,0.3,0.5,0.7,0.6,0.8c2.6,2.5,5.8,4.2,10.4,5.5c0.2-2.3,1.2-4.5,2.9-6.2C26,1.3,29.1,0,32.3,0
	c1.2,0,2.3,0.2,3.4,0.5C37,1,38.3,1.7,39.4,2.6c1-0.2,2-0.5,3-1c0.1-0.1,0.3-0.1,0.4-0.2c0.7-0.4,1.6-0.9,2.4-0.9
	c0.8,0,1.5,0.5,1.7,1.2c0.3,0.7,0.1,1.6-0.2,2.5c0.5,0,1,0.1,1.3,0.3h0.2l0.3,0.4l0,0c0,0,0,0,0,0.1c0,0,0,0,0,0L48.8,5l0.6,0.8
	L49.2,6c0.1,1.4-1,3.1-2.1,4.5c-0.4,0.5-0.9,1-1.4,1.4c-0.8,0.7-1.4,1.2-1.3,1.7c0.4,4.1-1.3,8.3-2.6,11.2
	c-3,6.7-8.7,11.6-15.8,13.9C22.9,39.5,19.6,40,16.5,40z M2.1,31.4c0.4,1,2.7,3.4,3.5,3.9c3,1.8,6.8,2.7,10.9,2.7h0
	c2.9,0,5.9-0.5,8.7-1.4c6.6-2.1,11.8-6.6,14.6-12.8c1.2-2.6,2.8-6.6,2.4-10.2c-0.1-1.5,1-2.5,2-3.3c0.4-0.4,0.8-0.7,1.1-1.1
	c1.6-2.1,1.7-2.9,1.7-3.2c0,0,0,0-0.1,0c-0.3,0-0.7,0.1-1.1,0.2c-0.2,0.1-0.4,0.1-0.5,0.1l-2,0.5l0.8-1.8c0.8-1.8,0.9-2.5,0.9-2.8
	c-0.4,0.1-1,0.4-1.3,0.6c-0.2,0.1-0.5,0.3-0.6,0.3c-1.4,0.7-2.8,1.1-4.1,1.3l-0.5,0.1l-0.4-0.3c-1-0.9-2.1-1.6-3.3-1.9
	C34.2,2.1,33.2,2,32.3,2c-2.6,0-5.1,1.1-6.9,2.9C23.7,6.6,22.9,8.7,23,11l0.1,1.4L21.7,12c-5.5-1.5-9.5-3.5-12.6-6.4
	c-0.2-0.2-0.5-0.6-0.8-1C7.9,4.1,6.9,2.8,6.4,2.5C4.9,4,4.2,5.6,4.1,7.8C4,9,4.1,10,4.3,10.9c0.1,0.5,0.3,1,0.4,1.4l0.5,1.2L4,13.7
	c0,0.1,0,0.2,0,0.4c-0.1,2.1,0.4,4,1.2,5.5c0.4,0.7,0.8,1.3,1.4,1.8l0.3,0.3l0,0.5c-0.1,0.6,0.1,1.4,0.4,2.2
	c0.7,1.9,2.5,3.5,4.8,4.4l2.6,1L12,30.6c-2.3,0.7-4.6,0.8-6.6,0.8c-0.5,0-1,0-1.5,0c-0.5,0-1,0-1.6,0C2.2,31.4,2.1,31.4,2.1,31.4z"
	/>
</svg>
